<svg width="28" height="29" fill="none" xmlns="http://www.w3.org/2000/svg"><path stroke="#fff" stroke-width="3" d="M1.5 29V9m7 20V17m7 12V13"/><path d="M20.901 7.455l.534-4.697h5.18v1.53h-3.676l-.229 1.986a2.92 2.92 0 011.39-.349c.88 0 1.57.273 2.07.82.5.545.749 1.309.749 2.29a3.36 3.36 0 01-.38 1.607c-.25.47-.61.835-1.08 1.098-.47.258-1.024.387-1.663.387a3.616 3.616 0 01-1.555-.337 2.804 2.804 0 01-1.136-.958 2.618 2.618 0 01-.439-1.403h1.816c.038.385.171.686.4.902.233.211.535.317.908.317.414 0 .734-.148.958-.444.224-.3.336-.724.336-1.27 0-.525-.129-.927-.387-1.206-.258-.28-.624-.419-1.098-.419-.436 0-.79.114-1.06.343l-.178.165-1.46-.362z" fill="#fff"/></svg>