<svg width="33" height="30" fill="none" xmlns="http://www.w3.org/2000/svg"><path d="M24.915 7.455l.533-4.697h5.18v1.53h-3.676l-.228 1.986a2.916 2.916 0 011.39-.349c.88 0 1.57.273 2.07.82.498.545.748 1.309.748 2.29a3.36 3.36 0 01-.38 1.607c-.25.47-.61.835-1.08 1.098-.47.258-1.024.387-1.663.387a3.616 3.616 0 01-1.555-.337 2.804 2.804 0 01-1.136-.958 2.618 2.618 0 01-.438-1.403h1.815c.038.385.171.686.4.902.233.211.535.317.908.317.414 0 .734-.148.958-.444.224-.3.337-.724.337-1.27 0-.525-.13-.927-.388-1.206-.258-.28-.624-.419-1.098-.419-.436 0-.789.114-1.06.343l-.177.165-1.46-.362zM8.152 29.4a2.808 2.808 0 100-5.615 2.808 2.808 0 000 5.615zm0-3.595a.784.784 0 110 1.568.784.784 0 010-1.568zm11.971.787a2.808 2.808 0 10-5.615 0 2.808 2.808 0 005.615 0zm-3.594 0a.784.784 0 11.784.784.787.787 0 01-.774-.784h-.01zM4.457 8H0v2.365h2.557L5.344 23.11h15.287l.698-10.212H5.533L4.457 8zM18.8 15.262l-.375 5.483H7.256l-1.205-5.483h12.748z" fill="#fff"/></svg>