<svg width="27" height="27" fill="none" xmlns="http://www.w3.org/2000/svg"><path d="M19.267 6.154l.45-3.974h4.384v1.294h-3.11l-.194 1.681a2.46 2.46 0 011.177-.295c.744 0 1.328.23 1.75.693.423.462.634 1.108.634 1.939 0 .505-.107.958-.322 1.359a2.26 2.26 0 01-.913.929c-.397.218-.867.327-1.407.327a3.06 3.06 0 01-1.316-.284 2.373 2.373 0 01-.961-.811 2.215 2.215 0 01-.371-1.187h1.536c.032.326.145.58.338.762.197.18.453.269.768.269.351 0 .622-.125.811-.376.19-.254.285-.612.285-1.074 0-.444-.11-.784-.328-1.02-.218-.237-.528-.355-.929-.355-.369 0-.668.096-.897.29l-.15.14-1.235-.307zM7.43 27a2.559 2.559 0 100-5.118 2.559 2.559 0 000 5.118zm0-3.276a.715.715 0 110 1.43.715.715 0 010-1.43zm10.909.716a2.56 2.56 0 10-5.119 0 2.56 2.56 0 005.119 0zm-3.276 0a.715.715 0 11.714.715.717.717 0 01-.705-.714h-.01zM4.062 7.497H0v2.155h2.33l2.54 11.616h13.932l.636-9.307H5.043l-.98-4.464zm13.07 6.619l-.342 4.997H6.613l-1.099-4.997h11.618z" fill="#3C3C3B"/></svg>