<svg width="26" height="30" fill="none" xmlns="http://www.w3.org/2000/svg"><path d="M25.815 6.928h-3.99a4.32 4.32 0 00.855-2.585A4.348 4.348 0 0018.338 0h-.082a4.338 4.338 0 00-3.99 2.63L13 5.579l-1.266-2.95A4.338 4.338 0 007.744 0h-.082A4.348 4.348 0 003.32 4.343c0 .967.318 1.862.855 2.585H.185v6.99h1.473V30h22.684V13.917h1.473v-6.99zm-22.4 21.314V13.917h19.17v14.325H3.414zm1.662-23.9a2.588 2.588 0 012.585-2.584h.081c1.035 0 1.968.614 2.376 1.565l1.547 3.605H7.662a2.588 2.588 0 01-2.585-2.585zm13.18-2.584h.08a2.588 2.588 0 012.585 2.585 2.588 2.588 0 01-2.584 2.585h-4.004l1.547-3.605a2.582 2.582 0 012.375-1.565zm-3.01 10.401h-4.493V8.686h4.492v3.473zM1.942 8.686h7.053v3.473H1.943V8.686zm22.114 3.473h-7.053V8.686h7.053v3.473z" fill="#95B03C"/></svg>