<svg width="30" height="26" fill="none" xmlns="http://www.w3.org/2000/svg"><path d="M28.605 6.844H1.481A.487.487 0 011 6.35V1.493C1 1.22 1.215 1 1.48 1h27.125c.266 0 .481.22.481.493V6.35a.487.487 0 01-.48.493zM1.962 5.859h26.163V1.985H1.962v3.874z" fill="#3C3C3B" stroke="#3C3C3B" stroke-width=".8"/><path d="M26.955 25.342H3.131a.487.487 0 01-.48-.493V6.351c0-.272.215-.492.48-.492h23.824c.266 0 .481.22.481.492V24.85a.487.487 0 01-.48.493zm-23.343-.985h22.862V6.844H3.613v17.513z" fill="#3C3C3B" stroke="#3C3C3B" stroke-width=".8"/><path d="M18.64 12.539h-7.194c-.998 0-1.81-.825-1.81-1.838 0-1.014.812-1.839 1.81-1.839h7.194c.99 0 1.794.825 1.794 1.839 0 1.013-.805 1.838-1.794 1.838zm-7.194-2.692a.852.852 0 00-.849.854c0 .47.381.853.849.853h7.194c.451 0 .833-.39.833-.853 0-.463-.382-.854-.833-.854h-7.194zm9.405 12.491H9.235a.487.487 0 01-.48-.492v-5.81c0-.273.215-.493.48-.493h11.616c.265 0 .48.22.48.492v5.81a.487.487 0 01-.48.493zm-11.135-.985H20.37v-4.825H9.716v4.825z" fill="#3C3C3B" stroke="#3C3C3B" stroke-width=".8"/></svg>