<svg width="26" height="26" fill="none" xmlns="http://www.w3.org/2000/svg"><path d="M13 26C5.82 26 0 20.18 0 13S5.82 0 13 0s13 5.82 13 13-5.82 13-13 13zm0-1.53c6.335 0 11.47-5.135 11.47-11.47 0-6.335-5.135-11.47-11.47-11.47C6.665 1.53 1.53 6.664 1.53 13c0 6.335 5.135 11.47 11.47 11.47zm0-6.882a4.588 4.588 0 110-9.176 4.588 4.588 0 010 9.176zm0-1.53a3.059 3.059 0 100-6.117 3.059 3.059 0 000 6.118zm0-8.793a2.294 2.294 0 110-4.589 2.294 2.294 0 010 4.589zm0-1.53a.765.765 0 100-1.53.765.765 0 000 1.53zm4.055-.035A2.294 2.294 0 1120.3 8.944 2.294 2.294 0 0117.055 5.7zm2.163 2.163a.765.765 0 10-1.081-1.081.765.765 0 001.081 1.081zM18.735 13a2.294 2.294 0 114.588 0 2.294 2.294 0 01-4.588 0zm1.53 0a.765.765 0 101.53 0 .765.765 0 00-1.53 0zm-3.21 4.055A2.294 2.294 0 1120.3 20.3a2.294 2.294 0 01-3.245-3.245zm1.082 1.082a.765.765 0 101.082 1.081.765.765 0 00-1.082-1.081zM13 18.735a2.294 2.294 0 110 4.588 2.294 2.294 0 010-4.588zm0 1.53a.765.765 0 100 1.53.765.765 0 000-1.53zm-4.055.035A2.294 2.294 0 115.7 17.055 2.294 2.294 0 018.945 20.3zm-2.163-2.163a.765.765 0 101.081 1.081.765.765 0 00-1.081-1.081zM7.265 13a2.294 2.294 0 11-4.589 0 2.294 2.294 0 014.589 0zm-1.53 0a.765.765 0 10-1.53 0 .765.765 0 001.53 0zM5.7 8.945A2.294 2.294 0 118.944 5.7 2.294 2.294 0 015.7 8.945zm2.163-2.163a.765.765 0 10-1.081 1.081.765.765 0 001.081-1.081z" fill="#3C3C3B"/></svg>