<svg width="37" height="22" fill="none" xmlns="http://www.w3.org/2000/svg"><path d="M15 11.857c0-.316.261-.571.583-.571h10.5c.323 0 .584.255.584.571a.578.578 0 01-.584.572h-10.5a.577.577 0 01-.583-.572zm.583-6.286h10.5A.577.577 0 0026.667 5a.577.577 0 00-.584-.571h-10.5A.577.577 0 0015 5c0 .316.261.571.583.571zm0 4.572h10.5a.577.577 0 00.584-.572.577.577 0 00-.584-.571h-10.5a.577.577 0 00-.583.571c0 .316.261.572.583.572zm0-2.286h10.5a.577.577 0 00.584-.571.577.577 0 00-.584-.572h-10.5a.577.577 0 00-.583.572c0 .316.261.571.583.571zM36 4.43v10.285C36 15.971 34.95 17 33.667 17h-7.584l.584 1.143h1.166V21h-14v-2.857H15L15.583 17H13.25c0 .629-.525 1.143-1.167 1.143H11.5c-.642 0-1.167-.514-1.167-1.143h-1.75L6.25 15.857V12.43H3.917v-1.143H1v-3.43h2.917V6.714H6.25V3.286l2.333-1.143h1.75c0-.629.525-1.143 1.167-1.143h.583c.642 0 1.167.514 1.167 1.143h20.417C34.95 2.143 36 3.17 36 4.429zM3.917 9h-1.75v1.143h1.75V9zM6.25 7.857H5.083v3.429H6.25V7.857zm4.083-4.571H8.86l-1.442.706v11.159l1.166.571v-5.008c0-.157.131-.285.292-.285.161 0 .292.128.292.285v5.143h1.166V3.286zm1.75-1.143H11.5V17h.583V2.143zm13.709 17.143L24.917 17v-2.286H16.75V17l-.875 2.286H15v.571h11.667v-.571h-.875zm2.625-16H13.25v12.571h2.333v-2.286h10.5v2.286h2.334V3.286zm6.416 1.143c0-.63-.523-1.143-1.166-1.143h-4.084v12.571h3.5v-4a.29.29 0 01.292-.286.29.29 0 01.292.286v4c.643 0 1.166-.512 1.166-1.143V4.43zm-1.458 4.285a.289.289 0 00-.292.286v1.143a.29.29 0 00.292.286.289.289 0 00.292-.286V9a.289.289 0 00-.292-.286z" fill="#3C3C3B" stroke="#3C3C3B" stroke-width=".3"/></svg>