<svg width="34" height="34" fill="none" xmlns="http://www.w3.org/2000/svg"><path d="M32.831 16.914a5.312 5.312 0 00-5.305-5.306c-.1 0-.198.01-.296.015L17.074 5.699a8.483 8.483 0 10-9.55 12.038l5.814 10.395a3.712 3.712 0 004.535 4.573 3.71 3.71 0 002.746-3.405l7.428-7.107a5.312 5.312 0 004.784-5.28zM15.673 25.62l-4.36-7.85a8.495 8.495 0 006.642-7.869l5.741 3.35a5.288 5.288 0 00.752 7.977l-5.218 4.99a3.678 3.678 0 00-3.559-.598h.002zm9.739-3.843c.374.162.766.28 1.167.352l-6.126 5.86a3.725 3.725 0 00-.496-.995l5.455-5.218zm6.358-4.864a4.245 4.245 0 11-8.49 0 4.245 4.245 0 018.49 0zm-6.093-4.967a5.3 5.3 0 00-1.126.576l-6.617-3.86a8.34 8.34 0 00-.26-1.385l8.003 4.669zM2.06 9.486a7.428 7.428 0 117.427 7.428A7.435 7.435 0 012.06 9.486zm6.796 8.457c.21.015.418.032.631.032.238 0 .473-.017.706-.036l4.542 8.178a3.717 3.717 0 00-.837.843l-5.042-9.017zm8.059 13.827a2.652 2.652 0 110-5.305 2.652 2.652 0 010 5.305z" fill="#3C3C3B" stroke="#3C3C3B" stroke-width=".4"/></svg>