<svg width="28" height="27" fill="none" xmlns="http://www.w3.org/2000/svg"><path d="M3.964 6.414h2.879v1.759H5.647a.429.429 0 00-.43.428v3.035c0 .236.192.428.43.428h1.922v1.765c0 .237.192.428.43.428h2.112v4.624c0 .118.048.23.134.31l3.433 3.242v3.623h.859v-3.623l3.432-3.241a.427.427 0 00.134-.31v-4.625h2.112c.238 0 .43-.191.43-.428v-1.765h1.922c.238 0 .43-.192.43-.428V8.601a.429.429 0 00-.43-.428h-1.196V6.414h2.88a.43.43 0 00.379-.228L27.17 1.4l-.759-.4-2.42 4.559H4.223L1.803 1l-.76.4 2.541 4.786a.43.43 0 00.38.228zM6.076 9.03h1.695v2.18H6.076V9.03zm13.507 2.18H18.08V9.03h1.503v2.18zm-2.362 0h-1.503V9.03h1.503v2.18zm-2.362 0h-1.504V9.03h1.504v2.18zm-2.363 0h-1.503V9.03h1.503v2.18zm-2.362 0H8.631V9.03h1.503v2.18zm7.11 7.489l-3.137 2.962-3.137-2.962v-4.44h6.274v4.44zm2.542-5.296H8.428v-1.338h11.358v1.338zm2.352-2.194h-1.696v-2.18h1.696v2.18zm-1.626-4.794v1.759H7.702v-1.76h12.81z" fill="#3C3C3B" stroke="#3C3C3B" stroke-width=".8"/></svg>