<svg width="32" height="32" fill="none" xmlns="http://www.w3.org/2000/svg"><path d="M4.004 16.515a1.513 1.513 0 01-.058.14 1.585 1.585 0 01-1.68.851 1.59 1.59 0 01-1.252-1.308c-.068-.486.11-1 .466-1.337a1.567 1.567 0 011.06-.429h.019a1.586 1.586 0 011.374.853c.027.053.05.109.071.165h6.293V13.4H8.142c-.018.052-.04.104-.064.155a1.582 1.582 0 01-1.68.851 1.592 1.592 0 01-1.251-1.308 1.576 1.576 0 01.459-1.33 1.552 1.552 0 011.065-.435h.02a1.587 1.587 0 011.387.877 1.4 1.4 0 01.064.156h2.155v-1.55a.695.695 0 01.051-.224.519.519 0 01.242-.241c.094-.046.123-.04.224-.051h1.55V8.143a1.597 1.597 0 01-1.018-1.244 1.576 1.576 0 01.459-1.331 1.56 1.56 0 011.066-.435h.02c.572.005 1.124.35 1.377.86.21.422.213.938.01 1.362a1.58 1.58 0 01-.88.781V10.3h2.065V4.01a1.58 1.58 0 01-1.018-1.245c-.067-.48.106-.987.453-1.325A1.563 1.563 0 0115.97 1h.02c.572.005 1.124.35 1.378.86.21.422.213.938.008 1.362a1.56 1.56 0 01-.88.775V10.3h2.067V8.143a1.597 1.597 0 01-1.018-1.244c-.067-.48.106-.987.452-1.325a1.57 1.57 0 011.073-.44h.02c.572.004 1.124.35 1.378.86.209.42.212.937.008 1.361-.175.363-.5.643-.88.781V10.3h1.55l.115.012a.62.62 0 01.288.182.514.514 0 01.1.207c.009.038.009.077.014.115v1.55h2.158c.079-.223.206-.427.375-.592a1.566 1.566 0 011.072-.441h.02c.572.005 1.125.35 1.379.86.209.421.212.938.008 1.362-.29.604-.998.978-1.68.851A1.599 1.599 0 0123.82 13.4h-2.157v2.051h6.296a1.55 1.55 0 01.39-.596 1.57 1.57 0 011.052-.422h.02a1.587 1.587 0 011.387.878c.2.417.201.927 0 1.345a1.585 1.585 0 01-1.68.851 1.6 1.6 0 01-1.17-.991h-6.295v2.05h2.158c.08-.227.213-.438.388-.604a1.566 1.566 0 011.06-.429h.02c.575.006 1.13.355 1.382.87.205.42.206.932.004 1.352-.29.604-.998.979-1.68.852A1.599 1.599 0 0123.82 19.6h-2.157v1.55a.624.624 0 01-.114.322.507.507 0 01-.18.143c-.093.045-.122.04-.224.052h-1.55v2.16c.376.137.7.416.877.775.205.42.207.933.004 1.353-.335.695-1.231 1.075-1.991.76a1.58 1.58 0 01-.94-1.216c-.068-.486.11-1 .465-1.338a1.55 1.55 0 01.553-.338v-2.156h-2.066v6.293c.375.137.7.416.875.776.206.419.207.932.004 1.352-.335.695-1.231 1.076-1.99.76a1.58 1.58 0 01-.94-1.216c-.067-.476.102-.98.445-1.319.162-.16.358-.281.572-.357v-6.29h-2.066v2.16c.376.138.7.417.876.776.205.42.207.933.004 1.353-.335.696-1.232 1.076-1.991.76a1.579 1.579 0 01-.94-1.216c-.068-.486.11-1 .465-1.338a1.56 1.56 0 01.553-.338v-2.156h-1.55a.625.625 0 01-.322-.113.523.523 0 01-.144-.18c-.044-.094-.04-.123-.05-.224V19.6H8.141c-.018.053-.04.105-.064.156a1.583 1.583 0 01-1.68.851A1.591 1.591 0 015.146 19.3c-.068-.487.11-1 .465-1.338a1.564 1.564 0 011.06-.429h.02c.575.006 1.13.355 1.382.87.026.053.049.108.068.163h2.155v-2.05H4.004zm11.973 12.383c-.34.004-.62.405-.466.735.111.237.42.36.664.26a.535.535 0 00.255-.732.526.526 0 00-.44-.263h-.013zm3.099-4.133c-.34.004-.621.406-.464.738a.536.536 0 00.662.258.535.535 0 00.257-.73.525.525 0 00-.441-.265h-.014zm-6.2 0c-.338.004-.618.405-.464.735.11.237.419.36.663.26a.536.536 0 00.257-.73.526.526 0 00-.441-.264h-.014zm-1.545-13.432v9.3h9.298v-9.3h-9.298zm-4.653 7.232c-.34.004-.62.407-.464.738a.536.536 0 00.662.258.536.536 0 00.257-.73.527.527 0 00-.442-.265h-.013zm18.597 0c-.34.004-.621.407-.464.738a.535.535 0 00.662.258.535.535 0 00.257-.73.525.525 0 00-.441-.265h-.014zM3.057 15.909a.481.481 0 00-.055-.174.525.525 0 00-.443-.268h-.014c-.34.003-.62.406-.464.737a.535.535 0 00.663.258.534.534 0 00.313-.433.52.52 0 010-.12zm25.842.109a.459.459 0 00.043.183c.111.237.42.361.664.26a.534.534 0 00.256-.729.524.524 0 00-.44-.265h-.015c-.266.003-.497.251-.507.518v.033zM6.678 12.366c-.34.003-.62.406-.464.737a.536.536 0 00.662.258.536.536 0 00.257-.73.527.527 0 00-.442-.265h-.013zm18.597 0c-.34.003-.621.406-.464.737a.535.535 0 00.662.258.535.535 0 00.257-.73.525.525 0 00-.441-.265h-.014zm-6.2-6.2c-.34.003-.62.406-.463.738a.535.535 0 00.662.257.535.535 0 00.257-.73.524.524 0 00-.441-.265h-.014zm-6.198 0a.53.53 0 00-.5.397.534.534 0 00.303.596c.285.12.66-.074.71-.394a.53.53 0 00-.5-.599h-.013zm3.1-4.133c-.34.003-.621.406-.464.737a.535.535 0 00.662.259.536.536 0 00.257-.73.527.527 0 00-.442-.266h-.013z" fill="#3C3C3B" stroke="#3C3C3B" stroke-width=".5"/></svg>