<svg width="27" height="27" fill="none" xmlns="http://www.w3.org/2000/svg"><path d="M13.106 0c7.235 0 13.108 5.872 13.108 13.107 0 7.235-5.873 13.107-13.108 13.107C5.872 26.214 0 20.342 0 13.107 0 5.872 5.872 0 13.106 0zm11.327 13.976h-2.037v-1.748h2.036a11.31 11.31 0 00-2.695-6.514L20.29 7.159l-1.23-1.234 1.444-1.443A11.317 11.317 0 0013.98 1.78v2.047h-1.747V1.78a11.307 11.307 0 00-6.52 2.698l1.448 1.447-1.229 1.234-1.45-1.45a11.316 11.316 0 00-2.701 6.52h2.046v1.747H1.78c.067.893.238 1.756.499 2.578h21.655c.262-.822.432-1.685.5-2.578zM15.32 10.86c2.964 2.915-1.493 7.427-4.448 4.523-.95-.935-2.847-5.15-3.797-7.026l1.158-1.178c1.891.919 6.137 2.747 7.087 3.68zm-1.226 1.246c-.307-.302-2.498-1.37-4.305-2.237.896 1.792 2.002 3.964 2.308 4.268 1.318 1.295 3.353-.698 1.997-2.031zm-2.06 1.002a1.072 1.072 0 112.143-.001 1.072 1.072 0 01-2.144.001zm11.178 5.194H3.002a11.34 11.34 0 0010.104 6.166A11.34 11.34 0 0023.212 18.3z" fill="#3C3C3B"/></svg>