<svg width="41" height="42" fill="none" xmlns="http://www.w3.org/2000/svg"><path d="M4.727 25.275v-9.47h31.546v9.47H4.727zm.905-8.565v7.658h29.736v-7.657H5.632z" fill="#3C3C3B" stroke="#3C3C3B" stroke-width=".7"/><path d="M9.09 16.26l-.903-.005v4.796l.904.004V16.26zm3.954 0l-.904-.005v4.796l.904.004V16.26zm3.954 0l-.904-.004v4.796l.904.004V16.26zm3.954 0l-.905-.005v4.796l.904.004V16.26zm3.954 0L24 16.256v4.796l.904.004V16.26zm3.954 0l-.905-.004v4.796l.904.004V16.26zm3.953 0l-.904-.004v4.796l.904.004V16.26z" fill="#3C3C3B" stroke="#3C3C3B" stroke-width=".7"/></svg>