<svg width="27" height="23" fill="none" xmlns="http://www.w3.org/2000/svg"><path d="M26.214 0H0v22.47h26.214V0zm-1.666 1.788v4.41H1.666v-4.41h22.882zM1.666 20.681V7.986h22.882v12.695H1.666z" fill="#3C3C3B"/><path d="M4.276 5.424c.737 0 1.333-.64 1.333-1.43 0-.79-.596-1.431-1.333-1.431-.736 0-1.333.64-1.333 1.43 0 .79.597 1.43 1.333 1.43zm3.444 0c.736 0 1.333-.64 1.333-1.43 0-.79-.597-1.431-1.333-1.431-.737 0-1.333.64-1.333 1.43 0 .79.596 1.43 1.333 1.43zm3.61 0c.736 0 1.332-.64 1.332-1.43 0-.79-.596-1.431-1.333-1.431-.736 0-1.332.64-1.332 1.43 0 .79.596 1.43 1.332 1.43zM6.109 10.55l3.138 3.665-3.138 3.665 1.222 1.192 4.165-4.857-4.165-4.858-1.222 1.192zm14.079 6.317h-8.442v1.787h8.442v-1.787z" fill="#3C3C3B"/></svg>