<svg width="27" height="34" fill="none" xmlns="http://www.w3.org/2000/svg"><path d="M24.924 7.81c.713 0 1.29-.553 1.29-1.234V4.932C26.214 2.22 23.894 0 21.057 0h-15.9C2.32 0 0 2.22 0 4.932v17.674c0 2.713 2.32 4.932 5.157 4.932h9.454v4.522h-2.149c-.472 0-.86.37-.86.822 0 .452.388.822.86.822h9.454c.474 0 .86-.37.86-.822 0-.452-.386-.822-.86-.822h-2.148v-4.522h1.289c2.836 0 5.157-2.219 5.157-4.932v-1.644c0-.68-.577-1.233-1.29-1.233h-5.156v-5.343h.43c.473 0 .859-.37.859-.822 0-.452-.386-.822-.86-.822h-6.016c-.472 0-.86.37-.86.822 0 .452.388.822.86.822h.43v5.343H8.165V7.81h16.76zM18.05 32.06h-1.72v-4.522h1.72v4.522zm-1.72-12.579l1.101-.526a.504.504 0 00.24-.689.549.549 0 00-.72-.23l-.62.297v-.906l1.1-.526a.504.504 0 00.24-.69.549.549 0 00-.72-.23l-.62.297v-1.892h1.719v5.343h-1.72v-.248zm-8.164 1.892h16.33v1.233c0 1.813-1.542 3.288-3.438 3.288h-15.9c-1.896 0-3.438-1.475-3.438-3.288V4.932c0-1.813 1.542-3.288 3.438-3.288h15.9c1.896 0 3.438 1.475 3.438 3.288v1.233H8.165c-.95 0-1.719.736-1.719 1.644v11.92c0 .908.77 1.644 1.719 1.644z" fill="#3C3C3B"/></svg>