<svg width="30" height="27" fill="none" xmlns="http://www.w3.org/2000/svg"><path d="M20.976 26.278H3.814a.586.586 0 01-.585-.588v-1.889a3.027 3.027 0 013.017-3.03h12.39a2.936 2.936 0 012.925 2.938v1.981a.586.586 0 01-.585.588zM4.4 25.102h15.99V23.71a1.76 1.76 0 00-1.755-1.763H6.246A1.853 1.853 0 004.4 23.801v1.301z" fill="#3C3C3B" stroke="#3C3C3B" stroke-width=".5"/><path d="M9.543 21.946a.585.585 0 01-.507-.294L2.213 9.78a.59.59 0 01.213-.802l.07-.041a.584.584 0 01.88.514l6.674 11.614a.59.59 0 01-.507.881zm6.683 0a.584.584 0 01-.507-.294L8.533 9.158a.589.589 0 01.214-.802.582.582 0 01.8.215l7.185 12.495a.589.589 0 01-.506.881z" fill="#3C3C3B" stroke="#3C3C3B" stroke-width=".5"/><path d="M5.377 11.068a4.316 4.316 0 01-2.989-1.195A4.365 4.365 0 011 6.678c0-2.42 1.963-4.39 4.377-4.39 1.598 0 3.068.876 3.837 2.286.349.632.534 1.36.534 2.104 0 .701-.158 1.364-.47 1.968a3.3 3.3 0 01-.348.576 4.338 4.338 0 01-3.553 1.846zm0-7.605A3.215 3.215 0 002.17 6.678c0 .887.37 1.738 1.017 2.336a3.158 3.158 0 002.19.879 3.18 3.18 0 002.61-1.365c.097-.128.17-.25.245-.407.232-.45.346-.931.346-1.443 0-.544-.135-1.076-.39-1.537a3.203 3.203 0 00-2.811-1.678z" fill="#3C3C3B" stroke="#3C3C3B" stroke-width=".5"/><path d="M14.645 5.444H8.7a.587.587 0 01-.585-.588c0-.325.262-.588.585-.588h5.945c.323 0 .585.263.585.588a.587.587 0 01-.585.588zm0 4.008H9.04a.587.587 0 01-.585-.588c0-.325.262-.588.585-.588h5.605c.323 0 .585.263.585.588a.587.587 0 01-.585.588z" fill="#3C3C3B" stroke="#3C3C3B" stroke-width=".5"/><path d="M18.027 10.697h-2.773a1.198 1.198 0 01-1.194-1.199V4.18a1.2 1.2 0 011.194-1.205h2.773a1.203 1.203 0 011.194 1.205V9.5c0 .238-.07.467-.202.66a1.163 1.163 0 01-.992.538zM15.254 4.15l-.024 5.348 2.797.024.024-5.343c0-.013 0-.017-.015-.026l-2.782-.003z" fill="#3C3C3B" stroke="#3C3C3B" stroke-width=".5"/><path d="M28.466 4.686a.582.582 0 01-.207-.039l-6.344-2.41-3.27 1.926a.584.584 0 01-.8-.209.589.589 0 01.208-.804l3.51-2.07a.585.585 0 01.504-.042l6.606 2.51a.589.589 0 01-.207 1.138zm-6.536 7.669c-.1 0-.2-.026-.29-.077l-3.393-1.94a.59.59 0 01-.219-.801.584.584 0 01.798-.22l3.151 1.8 6.311-2.478a.588.588 0 01.426 1.095l-6.57 2.58a.584.584 0 01-.214.04zM5.374 8.752a2.072 2.072 0 01-2.065-2.074c0-1.144.926-2.074 2.065-2.074 1.138 0 2.065.93 2.065 2.074a2.072 2.072 0 01-2.065 2.074zm0-2.973a.898.898 0 000 1.797.898.898 0 000-1.797z" fill="#3C3C3B" stroke="#3C3C3B" stroke-width=".5"/></svg>