<svg width="20" height="34" fill="none" xmlns="http://www.w3.org/2000/svg"><path d="M17.228 14.642c1.372 0 2.497 1.024 2.497 2.274v13.642c0 1.25-1.125 2.273-2.497 2.273H3.497C2.125 32.831 1 31.807 1 30.558V16.916c0-1.25 1.125-2.274 2.497-2.274h13.731zm0 1.137H3.497c-.702 0-1.248.497-1.248 1.137v13.642c0 .64.546 1.137 1.248 1.137h13.731c.702 0 1.248-.498 1.248-1.137V16.916c0-.64-.546-1.137-1.248-1.137z" fill="#3C3C3B" stroke="#3C3C3B" stroke-width=".5"/><path fill-rule="evenodd" clip-rule="evenodd" d="M14.731 11.8c.683 0 1.249.516 1.249 1.137v2.274h-1.25v-2.274H5.993v2.274H4.745v-2.274c0-.621.567-1.137 1.248-1.137h8.738z" fill="#3C3C3B" stroke="#3C3C3B" stroke-width=".5"/><path fill-rule="evenodd" clip-rule="evenodd" d="M13.483 11.8v3.411h-1.248V11.8h1.248zm-2.497 0v3.411H9.738V11.8h1.248zm-2.496 0v3.411H7.242V11.8H8.49z" fill="#3C3C3B" stroke="#3C3C3B" stroke-width=".5"/><path fill-rule="evenodd" clip-rule="evenodd" d="M11.61 1a.66.66 0 01.419.145.553.553 0 01.203.363l1.249 10.8-1.241.12-1.19-10.291H9.677l-1.19 10.291-1.24-.12 1.248-10.8a.553.553 0 01.203-.362A.66.66 0 019.114 1h2.497z" fill="#3C3C3B" stroke="#3C3C3B" stroke-width=".5"/><path d="M10.385 18.62a.672.672 0 01.278.07.607.607 0 01.214.175s.793 1.044 1.587 2.291c.398.624.797 1.301 1.105 1.939.307.637.539 1.214.539 1.778 0 1.877-1.684 3.41-3.745 3.41-2.06 0-3.745-1.533-3.745-3.41 0-.564.234-1.14.541-1.778.308-.638.707-1.315 1.105-1.939.794-1.247 1.587-2.291 1.587-2.291a.61.61 0 01.233-.184.676.676 0 01.3-.06zm-.02 1.633c-.285.39-.512.674-1.022 1.474-.383.601-.763 1.25-1.04 1.825-.278.576-.437 1.1-.437 1.322 0 1.262 1.11 2.273 2.496 2.273 1.387 0 2.497-1.011 2.497-2.273 0-.221-.156-.746-.434-1.322a18.67 18.67 0 00-1.041-1.825c-.51-.8-.734-1.084-1.02-1.474h0z" fill="#3C3C3B" stroke="#3C3C3B" stroke-width=".5"/></svg>