<svg width="28" height="28" fill="none" xmlns="http://www.w3.org/2000/svg"><path d="M25.441 19.805l-5.83-4.537c-.116-.636-.462-1.214-.982-1.56l1.559-1.561c.404.086.808.144 1.183.144.49 0 .982-.058 1.472-.202 1.444-.376 2.656-1.33 3.407-2.63a5.713 5.713 0 00-.231-6.01.767.767 0 00-.635-.318c-.26 0-.462.144-.607.346L23.45 5.76l-1.645.116-.721-1.503 1.299-2.283a.737.737 0 000-.693.664.664 0 00-.578-.376 5.604 5.604 0 00-5.311 2.803 5.44 5.44 0 00-.606 4.017l-2.685 2.687-5.83-5.837v-1.33c0-.26-.145-.52-.405-.635L3.705 1.079a.704.704 0 00-.837.144L1.223 2.87a.706.706 0 00-.144.838l1.645 3.266a.745.745 0 00.635.404h1.328l5.86 5.809-2.685 2.687a5.508 5.508 0 00-2.656.058c-1.443.376-2.655 1.33-3.406 2.63a5.713 5.713 0 00.231 6.01.766.766 0 00.635.319c.26 0 .462-.145.606-.347L4.6 22.26l1.646-.116.721 1.503-1.328 2.254a.738.738 0 000 .693c.116.203.347.376.578.376.144 0 .288.029.433.029a5.67 5.67 0 004.878-2.803 5.646 5.646 0 00.606-4.017l1.559-1.56c.346.52.924.895 1.559.982l4.532 5.837c.779.983 1.934 1.561 3.175 1.561A4.012 4.012 0 0027 22.983c0-1.242-.577-2.398-1.559-3.178zM17.734 4.547c.577-1.012 1.588-1.734 2.713-1.994l-.837 1.444a.737.737 0 000 .694l1.126 2.254a.7.7 0 00.693.405l2.511-.174c.231-.029.462-.144.578-.347l.837-1.444c.346 1.098.23 2.34-.376 3.352a4.13 4.13 0 01-2.54 1.965 4.212 4.212 0 01-3.175-.405 4.133 4.133 0 01-1.963-2.543c-.26-1.127-.115-2.254.433-3.207zm-1.299 4.768a5.768 5.768 0 002.136 2.196.219.219 0 00.116.058l-1.905 1.907-.318.318-2.251-2.254 2.222-2.225zm-6.148 14.16c-.578 1.01-1.588 1.733-2.714 1.993l.838-1.445c.115-.202.115-.462.028-.693l-1.125-2.254a.692.692 0 00-.635-.405H6.62l-2.511.174c-.231.029-.462.144-.578.347l-.837 1.444c-.346-1.098-.23-2.34.375-3.352a4.13 4.13 0 012.54-1.965 4.213 4.213 0 013.176.405c1.963 1.156 2.655 3.728 1.5 5.75zm3.204-6.705l-1.905 1.907a5.567 5.567 0 00-2.136-2.196c-.03-.029-.087-.029-.116-.058l2.223-2.225 2.251 2.254-.317.318zM5.524 6.107a.695.695 0 00-.52-.202H3.821L2.609 3.506l.894-.896L5.9 3.824V5.01c0 .202.087.376.202.52l9.353 9.276-.635.636-9.295-9.334zm9.237 11.415l2.771-2.775a.91.91 0 01.606.607l-2.77 2.774c-.29-.057-.52-.289-.607-.606zm8.227 8.033c-.809 0-1.53-.376-2.02-.982l-4.36-5.607 2.367-2.37 5.6 4.335c.635.492.982 1.243.982 2.023 0 1.445-1.155 2.601-2.57 2.601z" fill="#3C3C3B" stroke="#3C3C3B" stroke-width=".2"/></svg>