<svg width="28" height="28" fill="none" xmlns="http://www.w3.org/2000/svg"><path d="M14.111 1C6.882 1 1 6.887 1 14.121c0 7.234 5.882 13.093 13.111 13.093 7.23 0 13.103-5.859 13.103-13.093S21.34 1 14.112 1zm0 1.183c6.586 0 11.902 5.348 11.902 11.938a11.89 11.89 0 01-11.902 11.91 11.898 11.898 0 01-11.91-11.91c0-6.59 5.325-11.938 11.91-11.938zm-.065 2.197a.596.596 0 00-.53.606v4.07a.595.595 0 101.191 0v-4.07a.597.597 0 00-.66-.606zm2.029 2.18a.595.595 0 00-.046 1.182 6.645 6.645 0 014.727 6.37 6.635 6.635 0 01-6.645 6.649 6.635 6.635 0 01-6.644-6.65 6.645 6.645 0 014.728-6.369.596.596 0 00-.242-1.164.595.595 0 00-.093.028c-3.23.971-5.584 3.965-5.584 7.506 0 4.324 3.514 7.84 7.835 7.84 4.322 0 7.836-3.516 7.836-7.84 0-3.54-2.355-6.535-5.584-7.506a.595.595 0 00-.288-.047z" fill="#3C3C3B" stroke="#3C3C3B" stroke-width=".5"/></svg>