<svg width="273" height="48" fill="none" xmlns="http://www.w3.org/2000/svg"><path fill-rule="evenodd" clip-rule="evenodd" d="M15.985 35.24a2.741 2.741 0 01-.63 1 2.911 2.911 0 01-1.008.665 3.032 3.032 0 01-2.396-.075l-5.99 5.696a2.64 2.64 0 01.211 1.892 2.761 2.761 0 01-1.124 1.573 3.009 3.009 0 01-1.926.507 2.966 2.966 0 01-1.814-.8 2.705 2.705 0 01-.84-1.726A2.664 2.664 0 011 42.14a2.91 2.91 0 011.652-1.07 3.034 3.034 0 011.988.2l5.983-5.694a2.644 2.644 0 01-.13-2.207c.138-.357.353-.683.63-.957.277-.274.61-.49.98-.636a3.035 3.035 0 012.322.04 2.9 2.9 0 01.955.67c.267.284.469.617.594.978h4.372a2.75 2.75 0 01.7-1.068c.317-.3.703-.527 1.126-.663v-4.145a2.948 2.948 0 01-1.048-.553 2.782 2.782 0 01-.724-.909 2.648 2.648 0 01-.06-2.231c.153-.356.382-.677.673-.943a2.927 2.927 0 011.017-.604 3.038 3.038 0 012.34.146l5.996-5.706a2.64 2.64 0 01-.214-1.89 2.76 2.76 0 011.122-1.574 3.008 3.008 0 011.925-.51 2.966 2.966 0 011.814.797c.486.462.784 1.073.842 1.725a2.662 2.662 0 01-.53 1.833 2.907 2.907 0 01-1.65 1.072c-.666.16-1.37.09-1.987-.198l-6.015 5.727a2.66 2.66 0 01.064 2.24 2.76 2.76 0 01-.676.945c-.292.268-.64.474-1.02.605v4.184a2.92 2.92 0 011.214.765c.33.349.561.772.672 1.23.11.457.097.934-.04 1.385a2.74 2.74 0 01-.741 1.193 2.94 2.94 0 01-1.257.7c-.474.13-.975.14-1.456.033a2.955 2.955 0 01-1.289-.645 2.756 2.756 0 01-.798-1.159l-4.362-.005z" fill="#95B03C"/><path fill-rule="evenodd" clip-rule="evenodd" d="M6.26 15.559c0 .546-.17 1.08-.49 1.535a2.877 2.877 0 01-1.303 1.018 3.04 3.04 0 01-1.677.157 2.952 2.952 0 01-1.487-.756 2.725 2.725 0 01-.794-1.415 2.64 2.64 0 01.165-1.596c.22-.505.592-.937 1.07-1.24a3.008 3.008 0 011.612-.466c.77 0 1.509.29 2.053.809.545.518.85 1.221.85 1.954zm0 9.395a2.66 2.66 0 01-.49 1.535c-.319.455-.772.81-1.303 1.018a3.04 3.04 0 01-1.677.157 2.951 2.951 0 01-1.487-.756 2.724 2.724 0 01-.794-1.415 2.64 2.64 0 01.165-1.597 2.8 2.8 0 011.07-1.24 3.01 3.01 0 011.614-.465c.77 0 1.507.292 2.051.81.544.518.85 1.22.85 1.953zm9.872 0a2.66 2.66 0 01-.49 1.535 2.878 2.878 0 01-1.303 1.018 3.04 3.04 0 01-1.677.157 2.951 2.951 0 01-1.487-.756 2.725 2.725 0 01-.794-1.415 2.64 2.64 0 01.165-1.596c.22-.505.592-.937 1.07-1.24a3.01 3.01 0 011.612-.466c.77 0 1.508.291 2.053.81.544.518.85 1.22.85 1.953zm0-9.395c0 .546-.17 1.08-.49 1.535a2.876 2.876 0 01-1.303 1.018 3.04 3.04 0 01-1.677.157 2.952 2.952 0 01-1.487-.756 2.725 2.725 0 01-.794-1.415 2.64 2.64 0 01.165-1.596c.22-.505.592-.937 1.07-1.24a3.009 3.009 0 011.612-.466c.77 0 1.508.291 2.053.81.544.518.85 1.22.85 1.953zm9.83 0c0 .546-.17 1.08-.488 1.535a2.877 2.877 0 01-1.302 1.018 3.046 3.046 0 01-1.677.158 2.951 2.951 0 01-1.487-.755 2.725 2.725 0 01-.796-1.414 2.64 2.64 0 01.164-1.596c.219-.505.59-.937 1.067-1.241a3.008 3.008 0 011.611-.468c.77 0 1.509.29 2.053.809.545.518.85 1.221.85 1.954h.006zm9.917 9.395c0 .547-.17 1.081-.489 1.535-.32.455-.773.81-1.303 1.018a3.04 3.04 0 01-1.678.157 2.951 2.951 0 01-1.486-.756 2.724 2.724 0 01-.794-1.415 2.64 2.64 0 01.165-1.597 2.8 2.8 0 011.07-1.24 3.01 3.01 0 013.662.346c.543.518.848 1.22.848 1.952h.005zm0 9.396c0 .547-.17 1.081-.489 1.536-.32.454-.773.808-1.303 1.018a3.04 3.04 0 01-1.678.157 2.951 2.951 0 01-1.486-.757 2.725 2.725 0 01-.794-1.415 2.64 2.64 0 01.165-1.597c.22-.505.593-.936 1.07-1.24a3.008 3.008 0 011.613-.465c.77.002 1.507.294 2.05.813.543.518.848 1.22.847 1.953l.005-.003zm0 9.397c0 .546-.169 1.08-.487 1.535-.319.455-.772.81-1.302 1.02a3.046 3.046 0 01-1.677.158 2.952 2.952 0 01-1.488-.755 2.725 2.725 0 01-.796-1.414 2.64 2.64 0 01.164-1.596c.219-.505.59-.937 1.067-1.242a3.008 3.008 0 011.612-.467c.77 0 1.508.29 2.052.809.544.517.85 1.22.85 1.952h.005zm-9.916 0c0 .546-.17 1.08-.488 1.535-.319.455-.772.81-1.302 1.02a3.04 3.04 0 01-1.677.158 2.951 2.951 0 01-1.487-.754 2.724 2.724 0 01-.796-1.414 2.64 2.64 0 01.162-1.596c.22-.506.59-.938 1.067-1.242a3.008 3.008 0 011.612-.468c.77 0 1.508.29 2.052.808.545.518.85 1.22.852 1.953h.005zm-9.831 0c0 .547-.17 1.081-.489 1.536-.318.454-.771.81-1.302 1.019a3.04 3.04 0 01-1.677.158 2.952 2.952 0 01-1.488-.756 2.725 2.725 0 01-.795-1.415 2.64 2.64 0 01.165-1.597c.22-.505.592-.937 1.07-1.24a3.008 3.008 0 011.612-.466c.77 0 1.508.291 2.052.809.544.517.85 1.22.852 1.952zM6.26 34.353c0 .547-.17 1.08-.49 1.535a2.87 2.87 0 01-1.303 1.018 3.04 3.04 0 01-1.677.157 2.953 2.953 0 01-1.487-.757 2.725 2.725 0 01-.794-1.415 2.64 2.64 0 01.165-1.596 2.8 2.8 0 011.07-1.24 3.01 3.01 0 011.614-.465c.77 0 1.507.291 2.051.81.544.518.85 1.22.85 1.953zM188.514 45.99v-3.43a2.232 2.232 0 00-.135-.82 1.898 1.898 0 00-.493-.703 1.593 1.593 0 00-.586-.352 2.464 2.464 0 00-.785-.126 2.778 2.778 0 00-.643.07 2.02 2.02 0 00-.551.234 2.504 2.504 0 00-.493.385 1.649 1.649 0 00-.655-.516 2.037 2.037 0 00-.847-.166 2.212 2.212 0 00-.512.063 1.997 1.997 0 00-.894.492v-.494h-1.371v5.362h1.408v-3.241a1.16 1.16 0 01.084-.469.777.777 0 01.219-.3.868.868 0 01.303-.166 1.16 1.16 0 01.667 0c.11.035.212.092.298.166a.789.789 0 01.214.3c.06.15.089.309.084.469v3.24h1.406v-3.28a1.084 1.084 0 01.086-.445.827.827 0 01.525-.453 1.167 1.167 0 01.664 0 .832.832 0 01.512.467c.059.15.088.309.084.468v3.241l1.411.003zm-12.104-2.686a4.32 4.32 0 01-.032.612 1.536 1.536 0 01-.126.487.73.73 0 01-.288.326 1.122 1.122 0 01-1.009 0 .725.725 0 01-.288-.326 1.596 1.596 0 01-.128-.487 5.002 5.002 0 01-.032-.612 4.964 4.964 0 01.032-.61c.016-.166.06-.33.128-.484a.709.709 0 01.288-.321.964.964 0 01.504-.117.989.989 0 01.493.117.714.714 0 01.288.32c.068.155.111.319.126.486.029.202.044.405.044.61zm1.406 0v-.614a4.09 4.09 0 00-.067-.614 2.174 2.174 0 00-.17-.56 1.46 1.46 0 00-.699-.722 1.958 1.958 0 00-.468-.169 2.454 2.454 0 00-.532-.058 2.115 2.115 0 00-.78.129 1.697 1.697 0 00-.625.438v-.506h-1.382v7.324h1.404v-2.435c.164.18.371.322.603.414.243.086.502.126.761.12.179 0 .357-.019.532-.059a1.91 1.91 0 00.467-.166c.317-.154.566-.41.7-.724a2.39 2.39 0 00.17-.565c.037-.203.059-.408.066-.614.02-.211.022-.424.02-.619zm-8.864 0c0 .185 0 .361-.02.525-.011.15-.041.3-.089.443a.928.928 0 01-.214.34.872.872 0 01-.285.176c-.12.041-.247.062-.375.06a1.064 1.064 0 01-.371-.06.814.814 0 01-.279-.176.875.875 0 01-.214-.34 1.817 1.817 0 01-.091-.443 5.17 5.17 0 01-.02-.525c.003-.185 0-.358.02-.52.012-.15.042-.298.091-.44a.855.855 0 01.493-.514c.119-.04.245-.06.371-.058a1.16 1.16 0 01.375.058.88.88 0 01.285.178.91.91 0 01.214.335 1.8 1.8 0 01.089.44c.017.16.025.336.022.521h-.002zm1.406 0a6.31 6.31 0 00-.052-.858 2.443 2.443 0 00-.194-.672 1.938 1.938 0 00-.392-.549 2.137 2.137 0 00-1.005-.56 3.015 3.015 0 00-1.492 0 2.098 2.098 0 00-.994.56c-.164.16-.297.345-.392.549-.1.213-.165.44-.194.672a6.004 6.004 0 00-.055.858 6.1 6.1 0 00.055.865c.029.234.094.462.194.677.096.203.228.388.392.546.123.127.264.237.418.328.18.103.374.182.576.235.241.062.49.093.739.091.249.002.498-.028.739-.091.204-.053.399-.132.581-.235a2.07 2.07 0 00.423-.328c.163-.159.295-.344.392-.546.098-.216.163-.444.194-.677.043-.287.066-.575.069-.865h-.002zm-6.84 2.686v-1.132h-.542a.51.51 0 01-.382-.122.497.497 0 01-.115-.36V38.66h-1.401v5.796c-.002.19.03.38.093.56.061.181.161.348.293.49.14.154.315.274.512.352.234.091.486.136.739.13h.803zm-6.473-3.18h-2.14c.001-.071.007-.142.02-.211a1.373 1.373 0 01.11-.366.922.922 0 01.517-.48c.272-.1.573-.1.845 0a.927.927 0 01.52.48c.026.06.049.122.068.185a.88.88 0 01.04.18c.013.07.02.14.022.212h-.002zm1.386.916v-.595a3.042 3.042 0 00-.165-1.022 2.376 2.376 0 00-.475-.813 2.136 2.136 0 00-.771-.535 2.736 2.736 0 00-1.044-.194 2.702 2.702 0 00-1.002.183 2.1 2.1 0 00-.773.53 2.412 2.412 0 00-.493.86 3.67 3.67 0 00-.177 1.171c-.006.378.042.755.143 1.12.08.282.211.548.389.786.159.2.356.37.581.501.22.123.459.213.709.265.257.052.52.077.783.075a3.51 3.51 0 00.879-.096c.24-.06.469-.157.677-.286.213-.135.408-.292.584-.469l-.852-.794c-.108.105-.227.2-.355.28a1.367 1.367 0 01-.396.17 2.28 2.28 0 01-.527.056 1.385 1.385 0 01-.67-.157 1.052 1.052 0 01-.418-.422 1.3 1.3 0 01-.143-.616l3.516.002zm-6.759-3.098h-1.477l-1.135 3.314-1.148-3.314h-1.477l2.076 5.362h1.103l2.058-5.362zm-8.47 2.182h-2.14c.002-.07.008-.141.018-.211.009-.061.022-.121.039-.18a1.028 1.028 0 01.276-.472.935.935 0 01.315-.194c.271-.1.571-.1.842 0a.927.927 0 01.52.48 1.242 1.242 0 01.11.366c.015.063.02.136.025.21h-.005zm1.384.916v-.595a3.068 3.068 0 00-.163-1.022 2.378 2.378 0 00-.477-.813 2.136 2.136 0 00-.771-.535 2.736 2.736 0 00-1.044-.194 2.688 2.688 0 00-1 .183 2.107 2.107 0 00-.775.53 2.412 2.412 0 00-.493.86 3.67 3.67 0 00-.177 1.171c-.006.378.043.755.145 1.12.079.282.211.548.389.786.158.2.354.37.579.501a2.5 2.5 0 00.712.265c.256.052.518.077.78.075a3.54 3.54 0 00.882-.096c.24-.061.468-.158.677-.286.212-.136.407-.293.583-.469l-.854-.794c-.107.106-.226.2-.355.28a1.322 1.322 0 01-.396.17 2.258 2.258 0 01-.525.056 1.364 1.364 0 01-.669-.157 1.035 1.035 0 01-.419-.422 1.277 1.277 0 01-.145-.616l3.516.002zm-9.014-.422c.003.204-.007.409-.03.612a1.665 1.665 0 01-.133.487.739.739 0 01-.293.326 1 1 0 01-.507.12.974.974 0 01-.492-.12.713.713 0 01-.289-.326 1.657 1.657 0 01-.13-.487 5.208 5.208 0 01-.03-.612c0-.203.009-.407.03-.61.018-.166.062-.33.13-.484a.717.717 0 01.289-.321.962.962 0 01.492-.117.998.998 0 01.507.117.74.74 0 01.305.32c.069.155.114.319.133.486.021.202.028.406.023.61h-.005zm1.406 2.686v-7.33h-1.406v2.44a1.63 1.63 0 00-.608-.415 2.179 2.179 0 00-.764-.12c-.179 0-.357.02-.532.06a1.985 1.985 0 00-.47.168 1.482 1.482 0 00-.372.258c-.139.135-.25.294-.327.469-.08.18-.137.367-.17.56a4.525 4.525 0 00-.064.614c0 .206-.015.412-.012.614.002.201 0 .408.012.619.007.205.029.41.064.614.033.193.09.383.17.564.078.174.189.333.327.47.111.101.237.187.375.255a2.337 2.337 0 001.009.225 2.44 2.44 0 00.539-.054 1.65 1.65 0 00.453-.18 1.76 1.76 0 00.402-.331v.504l1.374-.005zm-13.025-5.65a.537.537 0 01-.129.344c-.088.107-.195.2-.315.274l-.059.04-.133.087-.13.08a4.189 4.189 0 01-.246-.286 1.527 1.527 0 01-.183-.272.576.576 0 010-.57.48.48 0 01.212-.213.704.704 0 01.352-.08.688.688 0 01.345.08.52.52 0 01.219.213c.05.094.074.198.071.303h-.004zm.369 4.066c-.158.138-.341.25-.539.328a1.72 1.72 0 01-.609.105 1.35 1.35 0 01-.59-.133 1.032 1.032 0 01-.419-.361.99.99 0 01-.158-.537 1.054 1.054 0 01.099-.455 1.22 1.22 0 01.271-.354c.126-.114.263-.219.408-.311l1.537 1.718zm3.201 1.584l-1.382-1.554c.269-.29.471-.63.594-.998.136-.414.213-.842.229-1.275h-1.33a2.928 2.928 0 01-.111.72 1.68 1.68 0 01-.278.566l-1.297-1.462.167-.11.182-.127c.059-.04.104-.075.143-.103l.059-.04c.151-.103.291-.22.416-.351.115-.123.207-.263.274-.415a1.28 1.28 0 00.098-.51 1.648 1.648 0 00-.923-1.503 2.371 2.371 0 00-1.049-.234 2.588 2.588 0 00-1.103.222 1.63 1.63 0 00-.704.6 1.681 1.681 0 00-.17 1.378c.047.147.11.288.189.422.075.123.157.24.246.354.089.108.175.202.247.286-.171.11-.335.227-.493.354-.163.13-.311.276-.443.436a2.12 2.12 0 00-.32.534 1.77 1.77 0 00-.121.642c-.012.412.085.82.281 1.188.19.334.487.603.847.767.444.19.927.281 1.413.267.244.002.486-.022.724-.07.19-.04.374-.1.549-.179.143-.066.28-.145.409-.234l.308-.234.561.637 1.788.026zm-12.161 0v-3.47a2.425 2.425 0 00-.121-.782 1.716 1.716 0 00-.357-.62 1.615 1.615 0 00-.588-.407 2.177 2.177 0 00-.815-.145 1.918 1.918 0 00-1.352.555v-2.46h-1.403v7.328h1.403v-3.281a1.134 1.134 0 01.081-.445.765.765 0 01.193-.28.807.807 0 01.3-.173 1.06 1.06 0 01.33-.049c.112 0 .224.017.332.047a.844.844 0 01.293.16c.094.08.167.18.212.292.058.143.086.295.081.448v3.28h1.411zm-7.141-.668l-.938-.886a1.578 1.578 0 01-.283.234 1.13 1.13 0 01-.29.139 1.261 1.261 0 01-.335.042 1.103 1.103 0 01-.448-.087 1.002 1.002 0 01-.35-.262 1.183 1.183 0 01-.246-.483 2.776 2.776 0 01-.076-.703c-.005-.237.02-.473.076-.703.045-.172.129-.332.246-.469a.98.98 0 01.35-.262c.141-.06.294-.09.448-.087.113-.001.226.013.335.042.104.031.202.078.29.138.104.068.199.146.283.235l.953-.905a2.321 2.321 0 00-.827-.546 2.737 2.737 0 00-1.034-.176 3.095 3.095 0 00-.692.075 2.605 2.605 0 00-.68.263 2.13 2.13 0 00-.583.497 2.318 2.318 0 00-.409.785 4.11 4.11 0 000 2.238c.084.283.223.55.409.785.161.2.358.37.583.501.211.122.44.21.68.265.227.051.459.076.692.075.354.007.705-.054 1.034-.178.315-.131.597-.324.827-.567h-.015zm-5.965-4.251a1.958 1.958 0 00-.394-.296 1.539 1.539 0 00-.434-.159 2.374 2.374 0 00-.492-.05 2.082 2.082 0 00-1.069.29 1.378 1.378 0 00-.354.287v-.515h-1.374v5.362h1.406v-3.232c-.001-.15.026-.3.08-.44a.882.882 0 01.827-.546c.103-.002.204.01.302.035.082.026.161.062.234.107.075.054.146.112.211.176l1.057-1.02zm-8.424 2.943c.004.14-.012.28-.046.415a.546.546 0 01-.16.265.879.879 0 01-.247.169.993.993 0 01-.285.07 2.68 2.68 0 01-.347.019.967.967 0 01-.614-.171.537.537 0 01-.197-.448.526.526 0 01.202-.445.96.96 0 01.589-.162h1.113l-.008.288zm1.404 1.976v-3.53c.02-.264-.025-.53-.13-.776a1.735 1.735 0 00-.476-.641c-.406-.317-1.002-.47-1.792-.47a4.503 4.503 0 00-.823.064 2.07 2.07 0 00-.647.234c-.21.12-.401.271-.564.446l.898.834c.085-.097.182-.183.289-.258.101-.066.215-.113.335-.14.15-.033.303-.048.457-.045.285-.025.57.048.803.204a.76.76 0 01.246.64v.267h-1.33c-.29-.003-.578.04-.854.124-.221.07-.425.183-.598.333a1.366 1.366 0 00-.357.494 1.587 1.587 0 00-.116.603c-.002.227.038.453.118.668.076.2.194.384.348.539.17.16.378.28.605.354.453.13.932.152 1.396.065a1.65 1.65 0 00.439-.169 2.1 2.1 0 00.381-.292v.468l1.372-.016zm-8.342-3.18h-2.14c.001-.071.008-.142.02-.211a.874.874 0 01.04-.18 1.005 1.005 0 01.276-.471.924.924 0 01.312-.195c.272-.1.573-.1.844 0a.925.925 0 01.52.48c.026.06.05.122.069.185a1.505 1.505 0 01.059.392zm1.384.916v-.595a3.08 3.08 0 00-.163-1.022 2.328 2.328 0 00-.478-.813 2.097 2.097 0 00-.768-.535 2.747 2.747 0 00-1.044-.194 2.691 2.691 0 00-1.002.183 2.1 2.1 0 00-.773.53c-.223.252-.39.544-.492.86a3.588 3.588 0 00-.178 1.171c-.006.378.042.755.143 1.12.079.282.21.548.39.786.158.2.355.37.58.501.22.123.46.213.71.265.257.052.52.077.782.075.296.005.592-.027.88-.096.24-.06.468-.157.676-.286a3.49 3.49 0 00.584-.469l-.854-.794a2.08 2.08 0 01-.353.28 1.38 1.38 0 01-.396.17 2.277 2.277 0 01-.524.056 1.387 1.387 0 01-.673-.157 1.039 1.039 0 01-.418-.422 1.311 1.311 0 01-.143-.616l3.514.002zm-7.207.577a1.419 1.419 0 00-.093-.585 1.474 1.474 0 00-.326-.503 2.044 2.044 0 00-1.258-.487l-.886-.082a.997.997 0 01-.372-.094.422.422 0 01-.17-.171.472.472 0 01-.042-.197.413.413 0 01.084-.253.563.563 0 01.26-.188c.146-.053.3-.079.456-.075.165-.002.33.008.493.03.154.022.305.06.45.113a1.2 1.2 0 01.374.218l.867-.834a2.13 2.13 0 00-.603-.377 3.029 3.029 0 00-.721-.197 5.463 5.463 0 00-.828-.054 3.033 3.033 0 00-.822.11c-.25.07-.485.18-.694.328-.2.14-.364.324-.478.534a1.665 1.665 0 00.022 1.545c.132.212.33.38.566.483.277.12.574.19.877.21l.886.083a.795.795 0 01.463.161.428.428 0 01.13.333.395.395 0 01-.085.255.604.604 0 01-.23.174c-.1.045-.207.078-.317.096a2.912 2.912 0 01-.84-.002 2.09 2.09 0 01-.522-.143 1.683 1.683 0 01-.492-.328l-.919.874a2.62 2.62 0 001.135.642c.202.054.408.09.616.105.216.02.433.03.65.026a3.94 3.94 0 00.933-.105 2.46 2.46 0 00.761-.324 1.6 1.6 0 00.51-.546 1.62 1.62 0 00.165-.776zm-8.32-1.493h-2.142c0-.078 0-.148.02-.211.009-.061.022-.121.039-.18.02-.06.042-.12.071-.186a.952.952 0 01.205-.286.95.95 0 01.312-.194c.272-.1.573-.1.845 0a.925.925 0 01.52.48 1.298 1.298 0 01.11.366c.01.063.015.136.02.21zm1.384.916v-.595a3.08 3.08 0 00-.163-1.022 2.367 2.367 0 00-.477-.813 2.127 2.127 0 00-.771-.535 2.735 2.735 0 00-1.044-.194 2.678 2.678 0 00-1 .183 2.096 2.096 0 00-.775.53 2.372 2.372 0 00-.493.86 3.59 3.59 0 00-.18 1.171 3.93 3.93 0 00.146 1.12c.078.283.21.549.389.786.157.201.355.371.58.501.22.124.46.213.71.265.256.052.518.077.78.075.297.005.592-.027.88-.096.24-.06.47-.157.679-.286.212-.136.407-.293.584-.469l-.852-.792a2.06 2.06 0 01-.355.281c-.12.077-.254.134-.394.169-.172.039-.35.058-.527.056a1.386 1.386 0 01-.672-.157 1.033 1.033 0 01-.416-.422 1.28 1.28 0 01-.145-.616h3.516zm134.749 2.264v-1.132h-.507a.496.496 0 01-.37-.124.493.493 0 01-.118-.359v-2.578h.985v-1.02h-.985v-1.584h-1.406v1.585h-.596v1.02h.596v2.654c0 .19.032.38.094.56.062.181.161.348.293.49.138.153.312.273.507.352.234.092.486.136.739.131l.768.005zm-5.447 0v-3.43a2.844 2.844 0 00-.044-.56 1.844 1.844 0 00-.527-.975 1.644 1.644 0 00-.571-.34 2.256 2.256 0 00-1.273-.063c-.341.079-.65.25-.891.492v-.494h-1.374v5.362h1.406v-3.234c-.004-.16.025-.32.083-.469a.77.77 0 01.22-.3.85.85 0 01.305-.166 1.139 1.139 0 01.665 0 .851.851 0 01.312.18.79.79 0 01.202.288c.059.15.087.31.082.47v3.24l1.405-.002zm-8.763-3.18h-2.129c0-.078 0-.148.019-.211a1.397 1.397 0 01.111-.366.927.927 0 01.52-.48c.133-.052.277-.077.421-.075a1.11 1.11 0 01.421.075c.118.044.225.11.315.194.086.083.155.18.204.286a1.258 1.258 0 01.111.366c.007.07.009.14.007.21zm1.384.916v-.595a3.093 3.093 0 00-.162-1.022 2.365 2.365 0 00-.478-.813 2.14 2.14 0 00-.768-.535 2.747 2.747 0 00-1.047-.194 2.677 2.677 0 00-.999.183 2.13 2.13 0 00-.776.53 2.371 2.371 0 00-.492.86 3.564 3.564 0 00-.18 1.171c-.006.378.043.755.145 1.12.078.283.21.549.389.786.158.2.354.37.579.501.221.123.461.212.711.265.258.052.52.077.783.075a3.5 3.5 0 00.879-.096c.241-.06.469-.157.678-.286.212-.136.407-.293.583-.469l-.854-.794c-.106.105-.225.2-.352.28a1.384 1.384 0 01-.397.17 2.291 2.291 0 01-.527.056 1.364 1.364 0 01-.669-.157 1.035 1.035 0 01-.419-.422 1.31 1.31 0 01-.14-.607l3.513-.007zM67.639 41.071a2.007 2.007 0 00-.394-.296 1.568 1.568 0 00-.433-.159 2.373 2.373 0 00-.492-.05c-.377 0-.745.1-1.064.291a1.404 1.404 0 00-.352.286v-.515h-1.379v5.362h1.406v-3.232a1.19 1.19 0 01.071-.431.889.889 0 01.21-.307.884.884 0 01.293-.18.867.867 0 01.325-.06.977.977 0 01.544.143c.075.055.145.113.212.177l1.053-1.03zm4.895-22.318H59.731v12.186h12.803V18.753zm141.715.138h12.683v12.056h-12.683V18.89zm-6.579 18.154h19.262v3.084H214.17v6.062h19.169v-33.59H207.67v24.444zm39.176.203V12.655h25.607v6.093h-19.205v12.187h19.205v6.093l-25.607.22zM243.18 3.473h-6.402v6.093h6.402V3.473zm0 33.543h-6.402V12.643h6.402v24.373zM197.6 18.725h-12.779v12.221H197.6v-12.22zm-19.186-6.07h25.607v24.39H178.51v-24.39h-.096zm-9.873 24.373h6.401V.424h-6.401v36.604zm-9.564-19.009h-12.82v4.502h12.82V18.02zM139.75 37.047V12.6h25.634v15.334h-19.227v3.012h12.747v6.093l-19.154.007zm-21.798-.019l-6.402.054v-24.41h25.63v6.08h-19.228v18.276zm-35.576.054V12.601h6.401v18.346h12.843v-18.28h6.402V37.04l-25.646.042zm-22.653 9.112h-6.401V12.68h25.617v24.4H59.733l-.01 9.114z" fill="#3C3C3B"/></svg>