<svg width="17" height="16" fill="none" xmlns="http://www.w3.org/2000/svg"><path d="M16.764 14.108l-5.127-4.836a.683.683 0 00-.468-.183.685.685 0 00-.435.154l-.724-.682c1.729-2.062 1.603-5.084-.44-7.011-2.186-2.062-5.742-2.062-7.928 0-2.19 2.066-2.19 5.412 0 7.479 2.015 1.9 5.219 2.061 7.431.415l.724.683a.6.6 0 00.03.853l5.126 4.836a.691.691 0 00.937 0l.437-.412.437-.412a.6.6 0 000-.884zM8.633 8.145c-1.673 1.578-4.38 1.578-6.054 0-1.673-1.578-1.673-4.133 0-5.712C4.248.86 6.964.86 8.633 2.433c1.673 1.579 1.673 4.133 0 5.712z" fill="#fff"/></svg>