<svg width="28" height="29" viewBox="0 0 28 29" fill="none" xmlns="http://www.w3.org/2000/svg">
<line x1="1.5" y1="29" x2="1.5" y2="9" stroke="white" stroke-width="3"/>
<line x1="8.5" y1="29" x2="8.5" y2="17" stroke="white" stroke-width="3"/>
<line x1="15.5" y1="29" x2="15.5" y2="13" stroke="white" stroke-width="3"/>
<path d="M20.9014 7.45508L21.4346 2.75781H26.6143V4.2876H22.939L22.7104 6.27441C23.1463 6.04167 23.6097 5.92529 24.1006 5.92529C24.9808 5.92529 25.6706 6.19824 26.1699 6.74414C26.6693 7.29004 26.9189 8.05387 26.9189 9.03564C26.9189 9.63232 26.792 10.1676 26.5381 10.6416C26.2884 11.1113 25.9287 11.4774 25.459 11.7397C24.9893 11.9979 24.4349 12.127 23.7959 12.127C23.2373 12.127 22.7189 12.0148 22.2407 11.7905C21.7625 11.562 21.3838 11.2425 21.1045 10.832C20.8294 10.4215 20.6834 9.95394 20.6665 9.4292H22.4819C22.52 9.81429 22.6533 10.1147 22.8818 10.3306C23.1146 10.5422 23.4172 10.6479 23.7896 10.6479C24.2043 10.6479 24.5238 10.4998 24.748 10.2036C24.9723 9.90316 25.0845 9.47998 25.0845 8.93408C25.0845 8.40934 24.9554 8.00732 24.6973 7.72803C24.4391 7.44873 24.0731 7.30908 23.5991 7.30908C23.1632 7.30908 22.8099 7.42334 22.5391 7.65186L22.3613 7.81689L20.9014 7.45508Z" fill="white"/>
</svg>
