<svg width="33" height="30" viewBox="0 0 33 30" fill="none" xmlns="http://www.w3.org/2000/svg">
<path d="M24.9146 7.45508L25.4478 2.75781H30.6274V4.2876H26.9521L26.7236 6.27441C27.1595 6.04167 27.6229 5.92529 28.1138 5.92529C28.994 5.92529 29.6838 6.19824 30.1831 6.74414C30.6825 7.29004 30.9321 8.05387 30.9321 9.03564C30.9321 9.63232 30.8052 10.1676 30.5513 10.6416C30.3016 11.1113 29.9419 11.4774 29.4722 11.7397C29.0024 11.9979 28.4481 12.127 27.8091 12.127C27.2505 12.127 26.7321 12.0148 26.2539 11.7905C25.7757 11.562 25.397 11.2425 25.1177 10.832C24.8426 10.4215 24.6966 9.95394 24.6797 9.4292H26.4951C26.5332 9.81429 26.6665 10.1147 26.895 10.3306C27.1278 10.5422 27.4303 10.6479 27.8027 10.6479C28.2174 10.6479 28.5369 10.4998 28.7612 10.2036C28.9855 9.90316 29.0977 9.47998 29.0977 8.93408C29.0977 8.40934 28.9686 8.00732 28.7104 7.72803C28.4523 7.44873 28.0863 7.30908 27.6123 7.30908C27.1764 7.30908 26.8231 7.42334 26.5522 7.65186L26.3745 7.81689L24.9146 7.45508Z" fill="white"/>
<path d="M8.15225 29.4C8.70762 29.4 9.25052 29.2353 9.7123 28.9267C10.1741 28.6182 10.534 28.1796 10.7465 27.6665C10.959 27.1534 11.0147 26.5888 10.9063 26.0441C10.798 25.4994 10.5305 24.9991 10.1378 24.6064C9.74511 24.2137 9.24477 23.9462 8.70007 23.8379C8.15537 23.7295 7.59077 23.7852 7.07767 23.9977C6.56457 24.2102 6.12602 24.5701 5.81747 25.0319C5.50893 25.4937 5.34424 26.0366 5.34424 26.5919C5.34558 27.3363 5.64185 28.0497 6.16816 28.576C6.69448 29.1024 7.40793 29.3986 8.15225 29.4ZM8.15225 25.8052C8.30735 25.8052 8.45898 25.8512 8.58794 25.9374C8.7169 26.0235 8.81742 26.146 8.87678 26.2893C8.93613 26.4326 8.95166 26.5903 8.9214 26.7424C8.89114 26.8945 8.81645 27.0343 8.70678 27.1439C8.5971 27.2536 8.45737 27.3283 8.30524 27.3586C8.15312 27.3888 7.99544 27.3733 7.85214 27.3139C7.70885 27.2546 7.58637 27.1541 7.5002 27.0251C7.41402 26.8961 7.36803 26.7445 7.36803 26.5894C7.3687 26.3816 7.45154 26.1826 7.59846 26.0356C7.74539 25.8887 7.94447 25.8059 8.15225 25.8052Z" fill="white"/>
<path d="M20.1234 26.5919C20.1234 26.0366 19.9587 25.4937 19.6501 25.0319C19.3416 24.5701 18.903 24.2102 18.3899 23.9977C17.8768 23.7852 17.3122 23.7295 16.7675 23.8379C16.2228 23.9462 15.7225 24.2137 15.3298 24.6064C14.9371 24.9991 14.6696 25.4994 14.5613 26.0441C14.4529 26.5888 14.5085 27.1534 14.7211 27.6665C14.9336 28.1796 15.2935 28.6182 15.7553 28.9267C16.2171 29.2353 16.76 29.4 17.3153 29.4C18.0597 29.3986 18.7731 29.1024 19.2994 28.576C19.8257 28.0497 20.122 27.3363 20.1234 26.5919ZM16.5286 26.5919C16.5286 26.4368 16.5746 26.2852 16.6608 26.1563C16.7469 26.0273 16.8694 25.9268 17.0127 25.8674C17.156 25.8081 17.3137 25.7925 17.4658 25.8228C17.6179 25.8531 17.7577 25.9277 17.8673 26.0374C17.977 26.1471 18.0517 26.2868 18.082 26.439C18.1122 26.5911 18.0967 26.7488 18.0373 26.8921C17.978 27.0354 17.8775 27.1578 17.7485 27.244C17.6195 27.3302 17.4679 27.3762 17.3128 27.3762C17.1068 27.3729 16.9103 27.2889 16.7655 27.1422C16.6208 26.9956 16.5393 26.798 16.5387 26.5919H16.5286Z" fill="white"/>
<path d="M4.45735 8H0V10.3646H2.55677L5.34409 23.1101H20.6315L21.3291 12.8978H5.53326L4.45735 8ZM18.7989 15.2624L18.4235 20.7454H7.2565L6.05053 15.2624H18.7989Z" fill="white"/>
</svg>
