<svg width="27" height="27" viewBox="0 0 27 27" fill="none" xmlns="http://www.w3.org/2000/svg">
<path d="M19.2666 6.1543L19.7178 2.17969H24.1006V3.47412H20.9907L20.7974 5.15527C21.1662 4.95833 21.5583 4.85986 21.9736 4.85986C22.7184 4.85986 23.3021 5.09082 23.7246 5.55273C24.1471 6.01465 24.3584 6.66097 24.3584 7.4917C24.3584 7.99658 24.251 8.44954 24.0361 8.85059C23.8249 9.24805 23.5205 9.55778 23.123 9.77979C22.7256 9.99821 22.2565 10.1074 21.7158 10.1074C21.2432 10.1074 20.8045 10.0125 20.3999 9.82275C19.9953 9.62939 19.6748 9.35905 19.4385 9.01172C19.2057 8.66439 19.0822 8.26872 19.0679 7.82471H20.604C20.6362 8.15055 20.749 8.40479 20.9424 8.5874C21.1393 8.76644 21.3953 8.85596 21.7104 8.85596C22.0614 8.85596 22.3317 8.73063 22.5215 8.47998C22.7113 8.22575 22.8062 7.86768 22.8062 7.40576C22.8062 6.96175 22.6969 6.62158 22.4785 6.38525C22.2601 6.14893 21.9504 6.03076 21.5493 6.03076C21.1805 6.03076 20.8815 6.12744 20.6523 6.3208L20.502 6.46045L19.2666 6.1543Z" fill="#3C3C3B"/>
<path d="M7.42926 26.9999C7.93539 26.9999 8.43015 26.8498 8.85098 26.5686C9.27181 26.2874 9.5998 25.8878 9.79349 25.4202C9.98718 24.9526 10.0379 24.438 9.93912 23.9416C9.84037 23.4452 9.59665 22.9892 9.23876 22.6314C8.88088 22.2735 8.42491 22.0297 7.9285 21.931C7.4321 21.8323 6.91757 21.8829 6.44997 22.0766C5.98237 22.2703 5.5827 22.5983 5.30151 23.0191C5.02032 23.44 4.87024 23.9347 4.87024 24.4409C4.87146 25.1192 5.14146 25.7694 5.62111 26.249C6.10075 26.7287 6.75094 26.9987 7.42926 26.9999ZM7.42926 23.7239C7.57061 23.7239 7.70879 23.7658 7.82632 23.8443C7.94385 23.9228 8.03545 24.0345 8.08954 24.1651C8.14364 24.2956 8.15779 24.4393 8.13021 24.578C8.10264 24.7166 8.03457 24.844 7.93462 24.9439C7.83467 25.0439 7.70733 25.1119 7.56869 25.1395C7.43006 25.1671 7.28636 25.1529 7.15577 25.0988C7.02517 25.0447 6.91356 24.9531 6.83503 24.8356C6.7565 24.7181 6.71458 24.5799 6.71458 24.4386C6.71519 24.2492 6.79068 24.0678 6.92458 23.9339C7.05847 23.8 7.2399 23.7245 7.42926 23.7239Z" fill="#3C3C3B"/>
<path d="M18.3386 24.4409C18.3386 23.9347 18.1885 23.44 17.9073 23.0191C17.6261 22.5983 17.2264 22.2703 16.7588 22.0766C16.2912 21.8829 15.7767 21.8323 15.2803 21.931C14.7839 22.0297 14.3279 22.2735 13.97 22.6314C13.6122 22.9892 13.3684 23.4452 13.2697 23.9416C13.171 24.438 13.2216 24.9526 13.4153 25.4202C13.609 25.8878 13.937 26.2874 14.3578 26.5686C14.7787 26.8498 15.2734 26.9999 15.7795 26.9999C16.4579 26.9987 17.1081 26.7287 17.5877 26.249C18.0673 25.7694 18.3373 25.1192 18.3386 24.4409ZM15.0626 24.4409C15.0626 24.2995 15.1045 24.1613 15.183 24.0438C15.2615 23.9263 15.3732 23.8347 15.5037 23.7806C15.6343 23.7265 15.778 23.7123 15.9167 23.7399C16.0553 23.7675 16.1826 23.8356 16.2826 23.9355C16.3825 24.0355 16.4506 24.1628 16.4782 24.3014C16.5058 24.4401 16.4916 24.5838 16.4375 24.7144C16.3834 24.8449 16.2918 24.9566 16.1743 25.0351C16.0568 25.1136 15.9186 25.1555 15.7772 25.1555C15.5895 25.1525 15.4104 25.076 15.2785 24.9423C15.1466 24.8087 15.0724 24.6286 15.0718 24.4409H15.0626Z" fill="#3C3C3B"/>
<path d="M4.06211 7.49731H0V9.65228H2.33006L4.87023 21.2676H18.8021L19.4378 11.9608H5.04262L4.06211 7.49731ZM17.132 14.1158L16.7899 19.1126H6.61306L5.51402 14.1158H17.132Z" fill="#3C3C3B"/>
</svg>
