<svg width="26" height="30" viewBox="0 0 26 30" fill="none" xmlns="http://www.w3.org/2000/svg">
<path d="M25.8146 6.92771H21.8248C22.3619 6.20496 22.6803 5.31041 22.6803 4.34279C22.6803 1.94818 20.7322 0 18.3376 0H18.2565C16.518 0 14.9516 1.03225 14.2659 2.62969L13 5.57859L11.7341 2.62969C11.0484 1.03225 9.48197 0 7.74349 0H7.6624C5.26779 0 3.31966 1.94818 3.31966 4.34279C3.31966 5.31047 3.63806 6.20496 4.17519 6.92771H0.185425V13.9171H1.658V30H24.342V13.9171H25.8146V6.92771ZM3.41582 28.2422V13.9171H22.5842V28.2422H3.41582ZM5.07742 4.34279C5.07742 2.91744 6.23699 1.75781 7.66234 1.75781H7.74343C8.77826 1.75781 9.7106 2.37223 10.1188 3.32309L11.6662 6.92771H7.66228C6.23705 6.92771 5.07742 5.76809 5.07742 4.34279ZM18.2565 1.75781H18.3376C19.7629 1.75781 20.9225 2.91744 20.9225 4.34279C20.9225 5.76814 19.7629 6.92771 18.3376 6.92771H14.3338L15.8812 3.32309C16.2893 2.37223 17.2217 1.75781 18.2565 1.75781ZM15.2461 12.1593H10.7539V8.68553H15.2461V12.1593ZM1.94324 8.68553H8.99611V12.1593H1.94324V8.68553ZM24.0568 12.1593H17.0039V8.68553H24.0568V12.1593Z" fill="#95B03C"/>
</svg>
