<svg width="34" height="34" viewBox="0 0 34 34" fill="none" xmlns="http://www.w3.org/2000/svg">
<path d="M32.831 16.9137C32.8294 15.507 32.27 14.1584 31.2754 13.1637C30.2807 12.169 28.9322 11.6095 27.5256 11.6079C27.4253 11.6079 27.3282 11.6175 27.2295 11.6228L17.0739 5.69888C16.4372 4.42141 15.4886 3.32525 14.3157 2.51192C13.1428 1.69858 11.7837 1.19437 10.3642 1.04597C8.94466 0.897576 7.51065 1.10979 6.19494 1.66297C4.87923 2.21614 3.72437 3.09239 2.8373 4.21057C1.95023 5.32875 1.35964 6.65271 1.12021 8.05983C0.880778 9.46695 1.00026 10.9117 1.46758 12.2604C1.9349 13.6091 2.73496 14.818 3.79366 15.7753C4.85236 16.7325 6.13547 17.4071 7.52417 17.7366L13.3378 28.1322C13.1988 28.6352 13.1674 29.1619 13.2457 29.6779C13.324 30.1938 13.5103 30.6875 13.7923 31.1265C14.0744 31.5656 14.4459 31.9402 14.8826 32.2259C15.3192 32.5117 15.8113 32.702 16.3265 32.7846C16.8418 32.8672 17.3687 32.8402 17.8728 32.7053C18.3769 32.5704 18.8468 32.3306 19.252 32.0017C19.6571 31.6728 19.9884 31.2622 20.224 30.7965C20.4596 30.3309 20.5944 29.8208 20.6195 29.2995L28.0471 22.193C29.3568 22.0621 30.5713 21.4497 31.4552 20.4743C32.3391 19.4989 32.8293 18.23 32.831 16.9137ZM15.6727 25.621L11.3138 17.7717C13.1296 17.368 14.7627 16.3795 15.9624 14.9578C17.1621 13.5362 17.8619 11.76 17.9546 9.90212L23.6961 13.2527C23.169 13.8009 22.7663 14.4564 22.5156 15.1744C22.265 15.8925 22.1722 16.6561 22.2436 17.4133C22.315 18.1705 22.5489 18.9033 22.9295 19.5618C23.31 20.2203 23.8281 20.789 24.4484 21.2289L19.23 26.2195C18.7382 25.8224 18.1524 25.5587 17.529 25.4539C16.9057 25.349 16.2658 25.4066 15.6712 25.621H15.6727ZM25.4119 21.7775C25.786 21.9397 26.1777 22.0579 26.5791 22.1298L20.4529 27.9906C20.3385 27.6357 20.1715 27.3 19.9574 26.9947L25.4119 21.7775ZM31.7699 16.9137C31.7699 17.7532 31.521 18.5739 31.0546 19.2719C30.5882 19.9699 29.9254 20.514 29.1498 20.8352C28.3743 21.1565 27.5209 21.2406 26.6975 21.0768C25.8742 20.913 25.118 20.5087 24.5244 19.9151C23.9308 19.3215 23.5266 18.5652 23.3628 17.7418C23.199 16.9184 23.2831 16.065 23.6043 15.2894C23.9256 14.5138 24.4696 13.8508 25.1675 13.3844C25.8655 12.918 26.6861 12.6691 27.5256 12.6691C28.6508 12.6703 29.7297 13.118 30.5254 13.9137C31.3211 14.7095 31.7686 15.7884 31.7699 16.9137ZM25.6772 11.947C25.2803 12.0933 24.9023 12.2865 24.5514 12.5226L17.9339 8.66216C17.8866 8.19442 17.7998 7.73153 17.6745 7.27841L25.6772 11.947ZM2.05959 9.48562C2.05959 8.01648 2.49521 6.58034 3.31137 5.35879C4.12752 4.13725 5.28755 3.18517 6.64476 2.62296C8.00197 2.06074 9.49541 1.91364 10.9362 2.20026C12.377 2.48687 13.7005 3.19433 14.7393 4.23317C15.778 5.272 16.4854 6.59556 16.772 8.03647C17.0586 9.47738 16.9115 10.9709 16.3494 12.3282C15.7872 13.6855 14.8352 14.8456 13.6137 15.6618C12.3923 16.4781 10.9562 16.9137 9.48717 16.9137C7.5179 16.9116 5.62989 16.1283 4.23741 14.7357C2.84492 13.3432 2.0617 11.455 2.05959 9.48562ZM8.85636 17.943C9.06539 17.9584 9.27442 17.9749 9.48717 17.9749C9.72538 17.9749 9.95988 17.9584 10.1933 17.9393L14.7348 26.1171C14.4125 26.3513 14.1301 26.6358 13.8981 26.9597L8.85636 17.943ZM16.9147 31.7699C16.3901 31.7699 15.8772 31.6143 15.441 31.3228C15.0047 31.0313 14.6647 30.617 14.464 30.1322C14.2632 29.6475 14.2107 29.1141 14.313 28.5994C14.4154 28.0848 14.668 27.6121 15.039 27.2411C15.41 26.8701 15.8827 26.6174 16.3972 26.5151C16.9118 26.4127 17.4452 26.4653 17.9299 26.666C18.4146 26.8668 18.8289 27.2069 19.1204 27.6431C19.4119 28.0794 19.5675 28.5923 19.5675 29.117C19.5666 29.8203 19.2869 30.4946 18.7896 30.9919C18.2923 31.4893 17.618 31.769 16.9147 31.7699Z" fill="#3C3C3B" stroke="#3C3C3B" stroke-width="0.4"/>
</svg>
